<?xml version="1.0" encoding="UTF-8"?>
<svg id="Layer_1" xmlns="http://www.w3.org/2000/svg" viewBox="0 0 400 100.86">
  <defs>
    <style>
      .cls-1, .cls-2 {
        fill: #cc9212;
      }

      .cls-3 {
        fill: #231f20;
      }

      .cls-4 {
        isolation: isolate;
      }

      .cls-5, .cls-2 {
        fill-rule: evenodd;
      }

      .cls-5, .cls-6 {
        fill: #fbbc05;
      }
    </style>
  </defs>
  <g>
    <g>
      <path class="cls-3" d="M100.33,51.57c-.42,0-.77-.14-1.06-.44-.29-.29-.44-.64-.44-1.06v-29.33c0-.46.15-.83.44-1.12.29-.29.64-.44,1.06-.44h5.04c.41,0,.78.15,1.09.44s.47.66.47,1.12v2.55c.95-1.33,2.19-2.34,3.7-3.05,1.51-.71,3.27-1.06,5.26-1.06h2.55c.46,0,.82.15,1.09.44.27.29.4.64.4,1.06v4.48c0,.42-.14.77-.4,1.06-.27.29-.63.44-1.09.44h-4.86c-1.99,0-3.54.55-4.64,1.65-1.1,1.1-1.65,2.65-1.65,4.64v17.12c0,.42-.15.77-.44,1.06-.29.29-.66.44-1.12.44h-5.42Z"/>
      <path class="cls-3" d="M133.7,52.19c-2.16,0-4.11-.43-5.85-1.28-1.74-.85-3.12-1.99-4.14-3.42-1.02-1.43-1.53-3.04-1.53-4.83,0-2.9,1.18-5.22,3.55-6.94,2.37-1.72,5.46-2.87,9.28-3.46l8.53-1.25v-1.31c0-1.74-.44-3.09-1.31-4.05-.87-.95-2.37-1.43-4.48-1.43-1.49,0-2.71.3-3.64.9-.93.6-1.63,1.4-2.09,2.4-.33.54-.81.81-1.43.81h-4.92c-.46,0-.8-.12-1.03-.37-.23-.25-.34-.58-.34-1,.04-.66.32-1.47.84-2.43.52-.95,1.31-1.88,2.37-2.77,1.06-.89,2.44-1.65,4.14-2.27,1.7-.62,3.76-.93,6.16-.93,2.61,0,4.83.32,6.63.97,1.81.64,3.25,1.51,4.33,2.58,1.08,1.08,1.87,2.35,2.37,3.8.5,1.45.75,2.99.75,4.61v19.55c0,.42-.15.77-.44,1.06-.29.29-.64.44-1.06.44h-5.04c-.46,0-.82-.14-1.09-.44-.27-.29-.4-.64-.4-1.06v-2.43c-.54.75-1.27,1.47-2.18,2.18-.91.71-2.02,1.28-3.33,1.71s-2.85.65-4.64.65ZM135.82,46.28c1.45,0,2.77-.31,3.95-.93,1.18-.62,2.12-1.59,2.8-2.9.68-1.31,1.03-2.96,1.03-4.95v-1.31l-6.23,1c-2.45.37-4.28.98-5.48,1.81-1.2.83-1.81,1.85-1.81,3.05,0,.91.28,1.69.84,2.33.56.64,1.28,1.12,2.15,1.43.87.31,1.78.47,2.74.47Z"/>
      <path class="cls-3" d="M155.86,63.4c-.41,0-.77-.15-1.06-.44-.29-.29-.44-.64-.44-1.06v-3.61c0-.42.15-.77.44-1.06.29-.29.64-.44,1.06-.44h1.62c1.29,0,2.24-.23,2.86-.69.62-.46,1.04-1.09,1.25-1.9.21-.81.31-1.71.31-2.71v-30.82c0-.41.15-.77.44-1.06.29-.29.64-.44,1.06-.44h5.42c.41,0,.77.15,1.06.44.29.29.44.64.44,1.06v30.95c0,2.45-.45,4.55-1.34,6.29-.89,1.74-2.22,3.09-3.99,4.05-1.76.95-4.02,1.43-6.76,1.43h-2.37ZM163.15,13.84c-.46,0-.82-.14-1.09-.44-.27-.29-.4-.64-.4-1.06v-4.48c0-.41.13-.77.4-1.06.27-.29.63-.44,1.09-.44h5.85c.46,0,.83.15,1.12.44.29.29.44.64.44,1.06v4.48c0,.42-.15.77-.44,1.06-.29.29-.66.44-1.12.44h-5.85Z"/>
      <path class="cls-3" d="M187.99,52.19c-2.16,0-4.11-.43-5.85-1.28-1.74-.85-3.12-1.99-4.14-3.42-1.02-1.43-1.53-3.04-1.53-4.83,0-2.9,1.18-5.22,3.55-6.94,2.37-1.72,5.46-2.87,9.28-3.46l8.53-1.25v-1.31c0-1.74-.44-3.09-1.31-4.05-.87-.95-2.37-1.43-4.48-1.43-1.49,0-2.71.3-3.64.9-.93.6-1.63,1.4-2.09,2.4-.33.54-.81.81-1.43.81h-4.92c-.46,0-.8-.12-1.03-.37-.23-.25-.34-.58-.34-1,.04-.66.32-1.47.84-2.43.52-.95,1.31-1.88,2.37-2.77,1.06-.89,2.44-1.65,4.14-2.27,1.7-.62,3.76-.93,6.16-.93,2.61,0,4.83.32,6.63.97,1.81.64,3.25,1.51,4.33,2.58,1.08,1.08,1.87,2.35,2.37,3.8.5,1.45.75,2.99.75,4.61v19.55c0,.42-.15.77-.44,1.06-.29.29-.64.44-1.06.44h-5.04c-.46,0-.82-.14-1.09-.44-.27-.29-.4-.64-.4-1.06v-2.43c-.54.75-1.27,1.47-2.18,2.18-.91.71-2.02,1.28-3.33,1.71s-2.85.65-4.64.65ZM190.11,46.28c1.45,0,2.77-.31,3.95-.93,1.18-.62,2.12-1.59,2.8-2.9.68-1.31,1.03-2.96,1.03-4.95v-1.31l-6.23,1c-2.45.37-4.28.98-5.48,1.81-1.2.83-1.81,1.85-1.81,3.05,0,.91.28,1.69.84,2.33.56.64,1.28,1.12,2.15,1.43.87.31,1.78.47,2.74.47Z"/>
      <path class="cls-3" d="M228.46,52.19c-3.32,0-6.11-.58-8.37-1.74-2.26-1.16-3.99-2.8-5.17-4.92-1.18-2.12-1.86-4.59-2.02-7.41-.04-.75-.06-1.66-.06-2.74s.02-1.99.06-2.74c.17-2.86.86-5.34,2.09-7.44,1.22-2.1,2.97-3.73,5.23-4.89,2.26-1.16,5.01-1.74,8.25-1.74s5.99.58,8.25,1.74c2.26,1.16,4.01,2.79,5.23,4.89,1.22,2.1,1.92,4.58,2.09,7.44.04.75.06,1.66.06,2.74s-.02,1.99-.06,2.74c-.17,2.82-.84,5.29-2.02,7.41-1.18,2.12-2.91,3.76-5.17,4.92-2.26,1.16-5.05,1.74-8.37,1.74ZM228.46,46.03c2.2,0,3.9-.69,5.11-2.09,1.2-1.39,1.87-3.43,1.99-6.13.04-.62.06-1.43.06-2.43s-.02-1.81-.06-2.43c-.12-2.7-.79-4.74-1.99-6.13-1.2-1.39-2.91-2.09-5.11-2.09s-3.9.7-5.11,2.09c-1.21,1.39-1.87,3.44-1.99,6.13-.04.62-.06,1.43-.06,2.43s.02,1.81.06,2.43c.12,2.7.79,4.74,1.99,6.13,1.2,1.39,2.9,2.09,5.11,2.09Z"/>
      <path class="cls-3" d="M252.5,51.57c-.42,0-.77-.14-1.06-.44-.29-.29-.44-.64-.44-1.06v-29.39c0-.41.14-.77.44-1.06.29-.29.64-.44,1.06-.44h5.11c.41,0,.77.15,1.06.44s.44.64.44,1.06v2.55c1.08-1.33,2.46-2.44,4.14-3.33,1.68-.89,3.77-1.34,6.26-1.34s4.73.57,6.6,1.71c1.87,1.14,3.31,2.75,4.33,4.83,1.02,2.08,1.53,4.57,1.53,7.47v17.5c0,.42-.15.77-.44,1.06s-.64.44-1.06.44h-5.48c-.42,0-.77-.14-1.06-.44-.29-.29-.44-.64-.44-1.06v-17.12c0-2.41-.59-4.3-1.77-5.67s-2.9-2.06-5.14-2.06-3.88.69-5.17,2.06c-1.29,1.37-1.93,3.26-1.93,5.67v17.12c0,.42-.15.77-.44,1.06s-.64.44-1.06.44h-5.48Z"/>
      <path class="cls-3" d="M304.49,65.27c-3.03,0-5.52-.4-7.47-1.18-1.95-.79-3.49-1.74-4.61-2.86-1.12-1.12-1.92-2.23-2.4-3.33-.48-1.1-.74-1.96-.78-2.58-.04-.42.09-.78.4-1.09s.67-.47,1.09-.47h5.42c.41,0,.75.09,1,.28.25.19.46.53.62,1.03.25.54.58,1.12,1,1.74.41.62,1.05,1.15,1.9,1.59.85.44,2.02.65,3.52.65,1.58,0,2.9-.23,3.99-.68,1.08-.46,1.9-1.22,2.46-2.3s.84-2.57.84-4.48v-4.23c-1,1.21-2.27,2.18-3.83,2.93-1.56.75-3.48,1.12-5.76,1.12s-4.12-.36-5.76-1.09c-1.64-.73-3-1.74-4.08-3.05-1.08-1.31-1.9-2.85-2.46-4.64-.56-1.78-.88-3.76-.97-5.92-.04-1.12-.04-2.24,0-3.36.08-2.07.4-4,.97-5.79.56-1.78,1.38-3.35,2.46-4.7,1.08-1.35,2.44-2.4,4.08-3.14,1.64-.75,3.56-1.12,5.76-1.12,2.37,0,4.36.45,5.98,1.34,1.62.89,2.95,2,3.99,3.33v-2.49c0-.46.14-.83.44-1.12.29-.29.64-.44,1.06-.44h5.04c.41,0,.77.15,1.06.44s.44.66.44,1.12l.06,30.01c0,2.99-.56,5.56-1.68,7.72-1.12,2.16-2.81,3.83-5.07,5.01-2.26,1.18-5.16,1.77-8.69,1.77ZM304.18,44.78c1.7,0,3.07-.37,4.11-1.12,1.04-.75,1.81-1.72,2.3-2.93.5-1.2.79-2.43.87-3.67.04-.54.06-1.22.06-2.05s-.02-1.49-.06-1.99c-.08-1.29-.37-2.52-.87-3.7-.5-1.18-1.27-2.16-2.3-2.93-1.04-.77-2.41-1.15-4.11-1.15s-3.07.38-4.11,1.15c-1.04.77-1.77,1.77-2.21,3.02-.44,1.25-.7,2.62-.78,4.11-.08,1-.08,2.01,0,3.05.08,1.45.34,2.81.78,4.08.44,1.27,1.17,2.27,2.21,3.02s2.41,1.12,4.11,1.12Z"/>
      <path class="cls-3" d="M329.77,51.57c-.42,0-.77-.14-1.06-.44-.29-.29-.44-.64-.44-1.06V8.86c0-.41.14-.77.44-1.06.29-.29.64-.44,1.06-.44h5.04c.46,0,.82.15,1.09.44.27.29.4.64.4,1.06v21.29l10.46-9.9c.41-.33.76-.59,1.03-.78.27-.19.69-.28,1.28-.28h5.79c.41,0,.75.12,1,.37s.37.58.37,1c0,.17-.04.35-.12.56-.08.21-.25.39-.5.56l-12.83,12.02,14.38,15.44c.41.42.62.77.62,1.06,0,.42-.13.75-.4,1s-.59.37-.97.37h-5.92c-.62,0-1.07-.09-1.34-.28-.27-.19-.59-.45-.97-.78l-11.89-12.51v12.08c0,.42-.13.77-.4,1.06-.27.29-.63.44-1.09.44h-5.04Z"/>
      <path class="cls-3" d="M363.7,13.84c-.42,0-.77-.14-1.06-.44-.29-.29-.44-.64-.44-1.06v-4.48c0-.41.15-.77.44-1.06s.64-.44,1.06-.44h5.67c.46,0,.83.15,1.12.44.29.29.44.64.44,1.06v4.48c0,.42-.15.77-.44,1.06s-.66.44-1.12.44h-5.67ZM363.95,51.57c-.42,0-.77-.14-1.06-.44-.29-.29-.44-.64-.44-1.06v-29.39c0-.41.14-.77.44-1.06.29-.29.64-.44,1.06-.44h5.17c.46,0,.82.15,1.09.44.27.29.4.64.4,1.06v29.39c0,.42-.14.77-.4,1.06-.27.29-.63.44-1.09.44h-5.17Z"/>
      <path class="cls-3" d="M380.39,51.57c-.42,0-.77-.14-1.06-.44-.29-.29-.44-.64-.44-1.06v-29.33c0-.46.14-.83.44-1.12.29-.29.64-.44,1.06-.44h5.04c.41,0,.78.15,1.09.44.31.29.47.66.47,1.12v2.55c.95-1.33,2.19-2.34,3.7-3.05s3.27-1.06,5.26-1.06h2.55c.46,0,.82.15,1.09.44.27.29.4.64.4,1.06v4.48c0,.42-.13.77-.4,1.06-.27.29-.63.44-1.09.44h-4.86c-1.99,0-3.54.55-4.64,1.65-1.1,1.1-1.65,2.65-1.65,4.64v17.12c0,.42-.15.77-.44,1.06s-.66.44-1.12.44h-5.42Z"/>
    </g>
    <g>
      <g>
        <path class="cls-2" d="M48.5,61.1c2.91,0,5.27,2.36,5.27,5.27s-2.36,5.27-5.27,5.27-5.27-2.36-5.27-5.27,2.36-5.27,5.27-5.27Z"/>
        <path class="cls-5" d="M12.16,60.92c2.91,0,5.27,2.36,5.27,5.27s-2.36,5.27-5.27,5.27-5.27-2.36-5.27-5.27,2.36-5.27,5.27-5.27Z"/>
      </g>
      <path class="cls-6" d="M41.48,55.54H12.31c-2.21,0-4-1.79-4-4v-29.47c0-6.97-6.83-12.85-6.9-12.91C-.27,7.74-.48,5.22.94,3.54c1.42-1.69,3.93-1.91,5.62-.49.4.33,9.75,8.3,9.75,19.03v25.47h25.17c12.11,0,16.76-10.13,18.46-16.2h-31.61c-2.21,0-4-1.79-4-4s1.79-4,4-4h36.5c1.13,0,2.21.48,2.97,1.32.76.84,1.12,1.96,1.01,3.09-1,9.61-7.99,27.78-27.32,27.78Z"/>
      <path class="cls-1" d="M36.51,40.38c-1.1,0-2.19-.45-2.98-1.33l-8.16-9.08c-1.05-1.17-1.32-2.86-.68-4.3s2.07-2.37,3.65-2.37h36.46c2.21,0,4,1.79,4,4s-1.79,4-4,4h-27.5l2.17,2.41c1.48,1.64,1.34,4.17-.3,5.65-.76.69-1.72,1.02-2.67,1.02Z"/>
      <path class="cls-1" d="M64.82,17.08H28.35c-2.21,0-4-1.79-4-4s1.79-4,4-4h27.5l-2.17-2.41c-1.48-1.64-1.34-4.17.3-5.65,1.64-1.48,4.17-1.34,5.65.3l8.16,9.08c1.05,1.17,1.32,2.86.68,4.3s-2.07,2.37-3.65,2.37Z"/>
    </g>
  </g>
  <g>
    <g class="cls-4">
      <path class="cls-3" d="M263.12,95.98c-1.09,0-1.99-.19-2.71-.58-.72-.39-1.3-.87-1.74-1.45v1.14c0,.18-.06.33-.18.45s-.27.18-.45.18h-1.25c-.18,0-.33-.06-.45-.18-.12-.12-.18-.27-.18-.45v-18.01c0-.18.06-.33.18-.45s.27-.18.45-.18h1.33c.18,0,.33.06.43.18.11.12.16.27.16.45v6.24c.45-.56,1.04-1.03,1.75-1.41.71-.38,1.6-.57,2.65-.57s1.88.18,2.59.53c.71.35,1.3.84,1.76,1.45.46.61.81,1.31,1.04,2.09.23.78.37,1.59.41,2.44.02.29.03.56.03.81s0,.52-.03.81c-.04.87-.17,1.69-.41,2.47-.24.78-.58,1.47-1.04,2.08-.46.61-1.05,1.09-1.76,1.44-.71.35-1.58.53-2.59.53ZM262.55,93.78c.94,0,1.68-.2,2.21-.61.53-.41.92-.94,1.15-1.6.23-.66.37-1.37.41-2.13.02-.52.02-1.05,0-1.57-.04-.76-.17-1.47-.41-2.13-.24-.66-.62-1.19-1.15-1.6-.53-.41-1.27-.61-2.21-.61-.85,0-1.56.2-2.12.6-.56.4-.98.9-1.26,1.52-.28.61-.43,1.24-.45,1.87-.02.29-.03.64-.03,1.04s0,.76.03,1.04c.04.67.19,1.33.45,1.97.26.64.67,1.17,1.22,1.59.55.42,1.27.62,2.16.62Z"/>
    </g>
    <g class="cls-4">
      <path class="cls-3" d="M274.22,100.86c-.15,0-.27-.05-.38-.16s-.16-.23-.16-.38c0-.07,0-.15.03-.22.02-.07.05-.16.11-.27l2.09-4.97-5.18-12.24c-.09-.22-.14-.37-.14-.46,0-.16.05-.3.16-.41.11-.11.24-.16.41-.16h1.33c.2,0,.35.05.45.14.1.09.17.2.2.33l4.12,9.88,4.23-9.88c.05-.13.13-.23.23-.33.1-.09.25-.14.45-.14h1.28c.16,0,.3.05.41.16.11.11.16.24.16.38,0,.09-.05.25-.14.49l-7.71,17.77c-.05.13-.13.23-.23.33-.1.09-.25.14-.45.14h-1.28Z"/>
    </g>
    <g class="cls-4">
      <path class="cls-3" d="M293.65,95.71c-.2,0-.35-.06-.46-.18-.11-.12-.16-.27-.16-.45v-17.72c0-.2.05-.36.16-.47.11-.12.26-.18.46-.18h1.36c.2,0,.36.06.47.18.12.12.18.28.18.47v6.73l7.24-6.95c.07-.07.19-.16.37-.27.17-.11.4-.16.69-.16h1.47c.14,0,.27.05.38.16.11.11.16.23.16.38s-.04.26-.11.35l-8.38,8.19,8.93,8.98c.09.11.14.24.14.38s-.05.27-.16.38c-.11.11-.23.16-.38.16h-1.52c-.31,0-.54-.06-.71-.18-.16-.12-.28-.21-.35-.29l-7.76-7.62v7.46c0,.18-.06.33-.18.45s-.28.18-.47.18h-1.36Z"/>
    </g>
    <path class="cls-3" d="M313.94,95.98c-1.37,0-2.52-.26-3.45-.79-.92-.52-1.63-1.25-2.12-2.18-.49-.93-.76-1.99-.81-3.19-.02-.31-.03-.7-.03-1.18s0-.86.03-1.15c.05-1.21.33-2.28.83-3.2.5-.92,1.21-1.65,2.13-2.17.92-.52,2.06-.79,3.42-.79s2.5.26,3.42.79c.92.52,1.63,1.25,2.13,2.17s.77,1.99.83,3.2c.02.29.03.67.03,1.15s0,.87-.03,1.18c-.05,1.19-.33,2.26-.81,3.19-.49.93-1.19,1.66-2.12,2.18-.92.52-2.07.79-3.45.79ZM313.94,93.89c1.12,0,2.02-.36,2.69-1.07.67-.71,1.03-1.76,1.08-3.13.02-.27.03-.61.03-1.03s0-.76-.03-1.03c-.05-1.37-.42-2.42-1.08-3.13-.67-.71-1.56-1.07-2.69-1.07s-2.02.36-2.7,1.07c-.68.71-1.04,1.76-1.07,3.13-.02.27-.03.62-.03,1.03s0,.76.03,1.03c.04,1.37.39,2.42,1.07,3.13.68.71,1.58,1.07,2.7,1.07Z"/>
    <path class="cls-3" d="M324.36,95.71c-.18,0-.33-.06-.45-.18-.12-.12-.18-.27-.18-.45v-12.86c0-.18.06-.33.18-.45.12-.12.27-.18.45-.18h1.22c.18,0,.33.06.45.18.12.12.18.27.18.45v.95c.42-.56.94-1.01,1.57-1.34.63-.33,1.39-.5,2.28-.5,2.04-.02,3.49.81,4.34,2.5.42-.76,1.02-1.37,1.82-1.82.8-.45,1.7-.68,2.71-.68.94,0,1.79.22,2.56.65.77.43,1.37,1.09,1.82,1.97.44.88.66,1.98.66,3.3v7.84c0,.18-.06.33-.18.45-.12.12-.27.18-.45.18h-1.27c-.18,0-.33-.06-.45-.18-.12-.12-.18-.27-.18-.45v-7.6c0-1.01-.15-1.81-.43-2.39-.29-.58-.68-.99-1.17-1.22-.49-.23-1.02-.35-1.6-.35-.47,0-.95.12-1.44.35-.49.24-.89.64-1.21,1.22-.32.58-.47,1.38-.47,2.39v7.6c0,.18-.06.33-.18.45-.12.12-.27.18-.45.18h-1.27c-.18,0-.33-.06-.45-.18-.12-.12-.18-.27-.18-.45v-7.6c0-1.01-.15-1.81-.46-2.39-.31-.58-.71-.99-1.19-1.22-.49-.23-1-.35-1.55-.35-.47,0-.95.12-1.44.35-.49.24-.89.64-1.21,1.22-.32.58-.47,1.37-.47,2.36v7.62c0,.18-.06.33-.18.45s-.27.18-.45.18h-1.3Z"/>
    <path class="cls-3" d="M353.5,95.98c-1.88,0-3.37-.57-4.48-1.72-1.1-1.15-1.71-2.72-1.82-4.71-.02-.23-.03-.54-.03-.91s0-.67.03-.91c.07-1.28.37-2.41.9-3.38.52-.97,1.24-1.71,2.16-2.24.91-.52,1.98-.79,3.21-.79,1.37,0,2.53.29,3.46.87.93.58,1.64,1.4,2.13,2.47s.73,2.32.73,3.74v.46c0,.2-.06.35-.18.46-.12.11-.27.16-.45.16h-9.39v.24c.04.74.2,1.43.49,2.08.29.64.71,1.16,1.26,1.56.55.4,1.2.6,1.94.6.65,0,1.19-.1,1.63-.3.43-.2.79-.42,1.06-.66.27-.24.45-.44.54-.58.16-.22.29-.35.38-.39.09-.04.23-.07.43-.07h1.33c.16,0,.3.05.42.15.12.1.17.24.15.42-.02.27-.16.6-.43.99-.27.39-.66.77-1.15,1.15-.5.38-1.11.69-1.84.94-.73.24-1.56.37-2.48.37ZM349.78,87.62h7.43v-.08c0-.81-.15-1.54-.45-2.17-.3-.63-.73-1.13-1.29-1.51-.56-.37-1.23-.56-2.01-.56s-1.44.19-1.99.56c-.55.37-.97.87-1.26,1.51-.29.63-.43,1.36-.43,2.17v.08Z"/>
    <g class="cls-4">
      <path class="cls-3" d="M363.67,95.71c-.18,0-.33-.06-.45-.18-.12-.12-.18-.27-.18-.45v-12.83c0-.18.06-.33.18-.46.12-.13.27-.19.45-.19h1.25c.18,0,.33.06.46.19.13.13.19.28.19.46v1.19c.36-.61.86-1.08,1.49-1.38.63-.31,1.4-.46,2.31-.46h1.06c.18,0,.33.06.45.18.12.12.18.27.18.45v1.11c0,.18-.06.33-.18.43-.12.11-.27.16-.45.16h-1.63c-.98,0-1.75.29-2.31.85-.56.57-.84,1.34-.84,2.32v7.98c0,.18-.06.33-.19.45-.13.12-.28.18-.46.18h-1.33Z"/>
    </g>
    <path class="cls-3" d="M378.78,95.98c-1.28,0-2.39-.25-3.32-.75-.93-.5-1.65-1.21-2.16-2.14-.51-.93-.78-2.05-.81-3.35-.02-.27-.03-.63-.03-1.09s0-.81.03-1.09c.04-1.3.31-2.42.81-3.35s1.23-1.65,2.16-2.14c.93-.5,2.04-.75,3.32-.75,1.05,0,1.95.15,2.7.43.75.29,1.37.66,1.86,1.11.49.45.85.94,1.1,1.47.24.52.38,1.02.39,1.49.02.18-.04.33-.16.43-.13.11-.28.16-.46.16h-1.3c-.18,0-.32-.04-.41-.12-.09-.08-.18-.22-.27-.42-.33-.89-.77-1.51-1.33-1.87-.56-.36-1.26-.54-2.09-.54-1.09,0-1.97.33-2.65,1-.68.67-1.04,1.75-1.1,3.23-.02.65-.02,1.28,0,1.9.05,1.5.42,2.58,1.1,3.24s1.56.99,2.65.99c.83,0,1.53-.18,2.09-.54.56-.36,1-.99,1.33-1.87.09-.2.18-.34.27-.43s.23-.14.41-.14h1.3c.18,0,.33.06.46.18.13.12.18.27.16.45-.02.38-.1.77-.24,1.17-.15.4-.38.8-.69,1.21-.32.41-.71.77-1.18,1.09-.47.32-1.03.57-1.68.76-.65.19-1.4.28-2.25.28Z"/>
    <path class="cls-3" d="M393.71,95.98c-1.88,0-3.37-.57-4.48-1.72-1.1-1.15-1.71-2.72-1.82-4.71-.02-.23-.03-.54-.03-.91s0-.67.03-.91c.07-1.28.37-2.41.9-3.38.52-.97,1.24-1.71,2.16-2.24.91-.52,1.99-.79,3.21-.79,1.37,0,2.53.29,3.46.87.93.58,1.64,1.4,2.13,2.47s.73,2.32.73,3.74v.46c0,.2-.06.35-.18.46-.12.11-.27.16-.45.16h-9.39v.24c.04.74.2,1.43.49,2.08.29.64.71,1.16,1.26,1.56.55.4,1.2.6,1.94.6.65,0,1.19-.1,1.63-.3.43-.2.79-.42,1.06-.66.27-.24.45-.44.54-.58.16-.22.29-.35.38-.39.09-.04.23-.07.43-.07h1.33c.16,0,.3.05.42.15.12.1.17.24.15.42-.02.27-.16.6-.43.99-.27.39-.66.77-1.15,1.15-.5.38-1.11.69-1.84.94s-1.56.37-2.48.37ZM389.99,87.62h7.43v-.08c0-.81-.15-1.54-.45-2.17-.3-.63-.73-1.13-1.29-1.51-.56-.37-1.23-.56-2.01-.56s-1.44.19-1.99.56c-.55.37-.97.87-1.26,1.51-.29.63-.43,1.36-.43,2.17v.08Z"/>
  </g>
</svg>